# xmcd
#
# Track frame offsets: 
#        150
#        24014
#        41949
#        57035
#        72527
#        94259
#        108312
#        122395
#        140601
#        156688
#        174401
#        187700
#        209129
#        227154
#        246885
#        263622
#        280716
#        294580
#        307204
#        318732
#        332710
#
# Disc length: 4671 seconds
#
# Revision: 0
# Processed by: cddbd v1.5.2PL0 Copyright (c) Steve Scherf et al.
# Submitted via: ExactAudioCopy v0.99pb4
#
DISCID=3e123d15
DTITLE=Various Artist - Radio 2 - Het Beste Uit De Explosieve 1000 - CD 4
DYEAR=2012
DGENRE=Pop
TTITLE0=Marco Borsato - Rood
TTITLE1=ZZ Top - Gimme All Your Lovin'
TTITLE2=Tom Jones - Delilah
TTITLE3=2 Fabiola - Lift U Up
TTITLE4=The Black Eyed Peas - I Gotta Feeling
TTITLE5=De Kreuners - Ik Wil Je
TTITLE6=The Sweet - Poppa Joe
TTITLE7=Aloe Blacc - I Need A Dollar
TTITLE8=The Dinky Toys - The Test Of Time
TTITLE9=Roxette - The Look
TTITLE10=Willy Willy and Isolde Lasoen - Why Don't You Love Me
TTITLE11=V.O.F. De Kunst - Suzanne
TTITLE12=Amy Winehouse - Back To Black
TTITLE13=Claude François - Alexandrie Alexandra
TTITLE14=The Pebbles - Seven Horses In The Sky
TTITLE15=Eagle-Eye Cherry - Save Tonight
TTITLE16=Willy Sommers - Een Wonder Van Een Vrouw
TTITLE17=Bart Peeters and De Radio's - I'm Into Folk
TTITLE18=The Troggs - Wild Thing
TTITLE19=Gloria Gaynor - I Will Survive
TTITLE20=Katrina And The Waves - Walking On Sunshine
EXTD=
EXTT0=
EXTT1=
EXTT2=
EXTT3=
EXTT4=
EXTT5=
EXTT6=
EXTT7=
EXTT8=
EXTT9=
EXTT10=
EXTT11=
EXTT12=
EXTT13=
EXTT14=
EXTT15=
EXTT16=
EXTT17=
EXTT18=
EXTT19=
EXTT20=
PLAYORDER=
